<svg width="264" height="162" viewBox="0 0 264 162" xmlns="http://www.w3.org/2000/svg" xmlns:xlink="http://www.w3.org/1999/xlink" xmlns:sketch="http://www.bohemiancoding.com/sketch/ns"><title>NavigationPopups_BetaFeaturesIcon</title><defs><path id="a" d="M254 43h-38v113.18l7.551 5.82 13.811-10 13.891 10 2.747-2.05v-116.95z"/><filter x="-20%" y="-20%" width="140%" height="140%" filterUnits="objectBoundingBox" id="b"><feOffset dx="1" dy="1" in="SourceAlpha" result="shadowOffsetOuter1"/><feGaussianBlur in="shadowOffsetOuter1" result="shadowBlurOuter1"/><feColorMatrix values="0 0 0 0 0.831438303 0 0 0 0 0.831319273 0 0 0 0 0.831478775 0 0 0 0.7 0" in="shadowBlurOuter1" result="shadowMatrixOuter1"/><feMerge><feMergeNode in="shadowMatrixOuter1"/><feMergeNode in="SourceGraphic"/></feMerge></filter></defs><g sketch:type="MSPage" fill="none"><g id="Group" sketch:type="MSLayerGroup"><path d="M24.833 151.362l-11.467 9.995-12.866-9.608v-151.249h263v151.749l-9 6.705v-116.454h-39v112.6l-4.393-3.731-7.607 5.33v-114.199h-155v110.849l-9.751 8.031-13.916-10.018z" id="Shape" fill="#fff" sketch:type="MSShapeGroup"/><path d="M263 1v150.998l-8 5.96v-115.958h-40v112.019l-3.274-2.779-.589-.499-.633.44-6.504 4.557v-113.738h-156v111.099l-9.257 7.661-13.295-9.569-.644-.465-.598.521-10.864 9.47-12.342-9.218v-150.499h262zm1-1h-264v152l13.391 10 11.473-10 13.891 10 10.245-8.4v-110.6h154v114.66l8.078-5.66 4.922 4.18v-113.18h38v116.95l10-7.45v-152.5z" id="Shape" fill="#E5E5E5" sketch:type="MSShapeGroup"/></g><path d="M203 43h-154v110.6l2.145-1.6 12.555 10 13.809-10 14.229 10 12.972-10 12.973 10 13.811-10 12.136 10 13.391-10 14.229 10 12.972-10 12.974 10 5.804-4.34v-114.66z" id="Shape" fill="#E5E5E5" sketch:type="MSShapeGroup"/><path d="M11 36c0-7.732 6.268-14 14-14s14 6.268 14 14-6.268 14-14 14-14-6.268-14-14z" fill="#E5E5E5" sketch:type="MSShapeGroup"/><g id="Shape" opacity=".5"><use fill="#E5E5E5" sketch:type="MSShapeGroup" xlink:href="#a"/><use xlink:href="#a"/></g><path d="M38 107v-35h-25v35h25zM232.51 5h26v6h-26v-6z" id="Shape" fill="#E5E5E5" sketch:type="MSShapeGroup"/><path id="Rectangle" fill="#E5E5E5" sketch:type="MSShapeGroup" d="M208.51 5h22v6h-22z"/><path d="M142 6v4h-92v-4h92zm1-1h-94v6h94v-6z" id="Shape" fill="#E5E5E5" sketch:type="MSShapeGroup"/><path id="Rectangle" fill="#E5E5E5" sketch:type="MSShapeGroup" d="M184.51 5h22v6h-22zM161.51 5h13v6h-13zM176.51 5h6v6h-6zM153.51 5h6v6h-6zM9 5h32v6h-32z"/><path d="M2 14.5h260" id="Shape" stroke="#E5E5E5" fill="#E5E5E5" sketch:type="MSShapeGroup"/><path fill="#E5E5E5" sketch:type="MSShapeGroup" d="M52 7h2v2h-2z"/><path d="M38 59v-5h-25v5h25z" id="Shape" fill="#E5E5E5" sketch:type="MSShapeGroup"/><g sketch:type="MSLayerGroup"><path d="M123.756 68h-38.141v7.782h38.141v-7.782z" fill="#9B9B9B" sketch:type="MSShapeGroup"/><path d="M180.488 103.02v-8.755h-50.814v8.755h50.814zM90.763 80.646h-20.834v8.633h20.834v-8.633z" fill="#9B9B9B" sketch:type="MSShapeGroup"/><path d="M189.298 88.428v-7.782h-37.695v7.782h37.695z" fill="#9B9B9B" sketch:type="MSShapeGroup"/><path d="M100.653 94.144h-25.698v7.782h25.698v-7.782z" fill="#9B9B9B" sketch:type="MSShapeGroup"/><path d="M175.233 68h-46.207v7.782h46.207v-7.782z" fill="#9B9B9B" sketch:type="MSShapeGroup"/><path d="M94.735 80.646v9.201h51.558v-9.201h-51.558z" id="Shape" fill="#0E73FC" sketch:type="MSShapeGroup"/></g><path d="M94 94h75v44h-75z" sketch:type="MSShapeGroup" filter="url(#b)" fill="#fff"/><path stroke="#979797" sketch:type="MSShapeGroup"/><path d="M169 94h-31v44h31v-44zm-18.167 24.129l5.904 9.653 3.206-2.958 4.829 6.051-21.136.028 6.244-12.774h.953z" fill="#0E73FC" sketch:type="MSShapeGroup"/><rect fill="#D0D0D0" sketch:type="MSShapeGroup" x="101" y="100" width="20" height="1" rx="1"/><rect fill="#D0D0D0" sketch:type="MSShapeGroup" x="101" y="104" width="20" height="1" rx="1"/><rect fill="#D0D0D0" sketch:type="MSShapeGroup" x="101" y="108" width="20" height="1" rx="1"/><rect fill="#D0D0D0" sketch:type="MSShapeGroup" x="101" y="112" width="28" height="1" rx="1"/><rect fill="#D0D0D0" sketch:type="MSShapeGroup" x="101" y="116" width="28" height="1" rx="1"/><rect fill="#D0D0D0" sketch:type="MSShapeGroup" x="101" y="120" width="28" height="1" rx="1"/><rect fill="#D0D0D0" sketch:type="MSShapeGroup" x="101" y="124" width="28" height="1" rx="1"/><rect fill="#D0D0D0" sketch:type="MSShapeGroup" x="101" y="128" width="28" height="1" rx="1"/></g></svg>