<?xml version="1.0" encoding="utf-8"?>
<!-- Generator: Adobe Illustrator 18.1.1, SVG Export Plug-In . SVG Version: 6.00 Build 0)  -->
<svg version="1.1" id="Layer_1" xmlns="http://www.w3.org/2000/svg" xmlns:xlink="http://www.w3.org/1999/xlink" x="0px" y="0px"
	 viewBox="0 0 24 24" enable-background="new 0 0 24 24" xml:space="preserve">
<g>
	<path fill="#555555" d="M21,11L6,7v11l5-1v1c0,0.6,0.4,1,1,1h5c0.6,0,1-0.4,1-1v-2.4l3-0.6C21.4,14.4,21.4,11.5,21,11z M17,17.5
		c0,0.3-0.2,0.5-0.5,0.5h-4c-0.3,0-0.5-0.2-0.5-0.5v-0.7l5-1V17.5z"/>
	<path fill="#555555" d="M3,11v3c0,0.6,0.4,1,1,1h1v-5H4C3.4,10,3,10.4,3,11z"/>
</g>
</svg>
