<?xml version="1.0" encoding="utf-8"?>
<!-- Generator: Adobe Illustrator 18.1.1, SVG Export Plug-In . SVG Version: 6.00 Build 0)  -->
<svg version="1.1" id="Layer_1" xmlns="http://www.w3.org/2000/svg" xmlns:xlink="http://www.w3.org/1999/xlink" x="0px" y="0px"
	 viewBox="0 0 24 24" enable-background="new 0 0 24 24" xml:space="preserve">
<g>
	<path fill="#555555" d="M3,15l3,0.6V18c0,0.6,0.4,1,1,1h5c0.6,0,1-0.4,1-1v-1l5,1V7L3,11C2.6,11.5,2.6,14.4,3,15z M7,15.8l5,1v0.7
		c0,0.3-0.2,0.5-0.5,0.5h-4C7.2,18,7,17.8,7,17.5V15.8z"/>
	<path fill="#555555" d="M20,10h-1v5h1c0.6,0,1-0.4,1-1v-3C21,10.4,20.6,10,20,10z"/>
</g>
</svg>
