<?xml version="1.0" encoding="UTF-8"?>
<svg xmlns="http://www.w3.org/2000/svg" width="117.316" height="83.261" viewBox="0 0 117.316 83.261">
	<path fill="#444" stroke="#231f20" stroke-miterlimit="10" d="M-769.548-1258.477h1287.13v2885.42H-769.55z"/>
	<path fill="#444" d="M-643.495-186.033h1024v607h-1024z" opacity="0.3"/>
	<path fill="#c8ccd1" d="M-371.166-106.424h572.01v453.12h-572.01z"/>
	<path fill="#fff" stroke="#eaecf0" stroke-miterlimit="10" d="M-375.025-111.04h570.953v452.675h-570.953z"/>
	<path fill="#eaecf0" d="M7.228 0h75.17v5.782H7.23z"/>
	<path fill="#36c" d="M3.15 10.722h71.09v5.782H3.15z"/>
	<path fill="#eaecf0" d="M89.18 0h21.65v5.782H89.18zM.75 20.84h81.666v5.783H.75zm87.832 0h28.734v5.783H88.582zM0 31.803h81.665v5.782H0zm88.582 0h28.734v5.782H88.582zM0 41.56h81.665v5.783H0zm88.582 0h28.734v5.783H88.582zM79.56 10.722h34.16v5.782H79.56z"/>
	<path fill="#fff" stroke="#a2a9b1" stroke-miterlimit="10" d="M102.388 82.76h-88.13V23.01h16.46l3.615-4.337 3.614 4.336h64.44z"/>
	<path fill="none" stroke="#a2a9b1" stroke-miterlimit="10" d="M21.323 31.803h19.154m-19.154 5.42h26.382m-26.382 5.783h26.382m-26.382 5.06h26.382m-26.382 5.06h26.382m-26.382 5.06h26.382m-26.382 5.06h26.382m-26.382 5.058h26.382m-26.382 5.06h26.382"/>
	<path fill="#36c" d="M54.57 23.01h47.818v59.75H54.57z"/>
	<path fill="#fff" d="M82.208 70.865L73.23 61.11l-1.4.574-8.9 13.815h31.1v-.03l-7.106-7.583"/>
</svg>
