<?xml version="1.0" encoding="UTF-8"?>
<svg xmlns="http://www.w3.org/2000/svg" width="20" height="20" viewBox="0 0 20 20">
	<g fill="#54595d">
		<path d="M10.112 4.554a5.334 5.334 0 1 0 0 10.668 5.334 5.334 0 0 0 0-10.668zm0 7.823a2.49 2.49 0 1 1 0-4.978 2.49 2.49 0 0 1 0 4.978z"/>
		<path d="M11.4 5.303L11.05 3h-2.1L8.6 5.303a4.9 4.9 0 0 1 2.8 0zm-2.8 9.394L8.95 17h2.1l.35-2.303a4.9 4.9 0 0 1-2.8 0zm5.712-7.028l1.4-1.876L14.2 4.309l-1.876 1.4a4.9 4.9 0 0 1 1.981 1.981l.007-.021zm-8.624 4.662L4.309 14.2 5.8 15.691l1.876-1.4a4.9 4.9 0 0 1-1.981-1.981l-.007.021zm9.009-.931L17 11.05v-2.1l-2.303-.35a4.9 4.9 0 0 1 0 2.8zM5.303 8.6L3 8.95v2.1l2.303.35a4.9 4.9 0 0 1 0-2.8zm7.028 5.712l1.876 1.4 1.484-1.512-1.4-1.876a4.9 4.9 0 0 1-1.981 1.981l.021.007zM7.669 5.688L5.8 4.309 4.309 5.8l1.4 1.876a4.9 4.9 0 0 1 1.96-1.988z"/>
	</g>
</svg>
