<?xml version="1.0" encoding="UTF-8"?>
<svg xmlns="http://www.w3.org/2000/svg" xmlns:xlink="http://www.w3.org/1999/xlink" width="2560" height="1571" viewBox="0 0 2560 1571">
	<defs>
		<path id="a" d="M0 0v1474.025L116.364 1571l116.363-96.975L349.091 1571l116.364-96.975L581.818 1571l116.364-96.975L814.545 1571l116.364-96.975L1047.273 1571l116.363-96.975L1280 1571l116.364-96.975L1512.727 1571l116.364-96.975L1745.455 1571l116.363-96.975L1978.182 1571l116.363-96.975L2210.91 1571l116.364-96.975L2443.636 1571 2560 1474.025V0z"/>
	</defs>
	<g fill="none" fill-rule="evenodd">
		<mask id="b" fill="#fff">
			<use xlink:href="#a"/>
		</mask>
		<g mask="url(#b)">
			<path fill="#FFF" d="M0 0h2560v1571H0"/>
			<path fill="#EAECF0" d="M106.667 213.346c0-77.58 58.181-135.766 135.757-135.766 77.576 0 135.758 58.185 135.758 135.766 0 77.58-58.182 135.765-135.758 135.765-77.576 0-135.757-58.185-135.757-135.765zm261.818 223.043V387.9H126.06v48.488h242.424zm0 1144.309V562.457H126.06v1027.938h242.424v-9.697zM2259.394 48.488h252.121v58.185h-252.121V48.488zm-232.727 0H2240v58.185h-213.333V48.488zm-232.728 0h213.334v58.185h-213.334V48.488zm-223.03 0h126.06v58.185h-126.06V48.488zm145.455 0h58.181v58.185h-58.181V48.488zm-223.03 0h58.181v58.185h-58.182V48.488z"/>
			<g fill="#EAECF0">
				<path d="M2501.818 155.161v38.79h-892.121v-38.79h892.121zm9.697-9.698H1600v58.185h911.515v-58.185z"/>
				<path d="M1629.09 164.858h19.395v19.395h-19.395z"/>
			</g>
			<path fill="#EAECF0" d="M0 0v1571h2560V0H0zm9.697 9.698h2540.606v1459.769l-106.667 88.926-116.363-96.975-116.364 96.975-116.364-96.975-116.363 96.975-116.364-96.975-116.363 96.975-116.364-96.975-116.364 96.975-116.363-96.975L1280 1558.393l-116.364-96.975-116.363 96.975-116.364-96.975-116.364 96.975-116.363-96.975-116.364 96.975-116.363-96.975-116.364 96.975-116.364-96.975-116.363 96.975-106.667-87.278V9.698z"/>
		</g>
		<path fill="#EAECF0" d="M2067 281h387v1290h-387V281zm-1602 0h1516v1344H465V281z" mask="url(#b)"/>
		<path fill="#C8CCD1" d="M614 416h1105v78.774H614V416zm0 377.613h1105v78.774H614v-78.774zm0-188.806h1240v78.773H614v-78.773zm0 566.42h1240V1250H614v-78.774zm0-188.807h553v78.773H614V982.42zm651 0h504v78.773h-504V982.42z" mask="url(#b)"/>
		<path fill="#36C" d="M1190 982h50v47h-50z" mask="url(#b)"/>
		<g mask="url(#b)">
			<g transform="translate(1173.13 580.297)">
				<path fill="#FFF" d="M0 0h684v368.861H0z"/>
				<ellipse cx="97.477" cy="79.511" fill="#36C" rx="37.5"/>
				<path fill="#36C" d="M60 161h441.92v25.007H60zm0 48h560v25.007H60zm0 81h245.164v25.007H60z"/>
			</g>
		</g>
	</g>
</svg>
