<?xml version="1.0" encoding="UTF-8"?>
<svg xmlns="http://www.w3.org/2000/svg" xmlns:xlink="http://www.w3.org/1999/xlink" width="2560" height="1571" viewBox="0 0 2560 1571">
	<defs>
		<path id="a" d="M0 0v1474.025L116.364 1571l116.363-96.975L349.091 1571l116.364-96.975L581.818 1571l116.364-96.975L814.545 1571l116.364-96.975L1047.273 1571l116.363-96.975L1280 1571l116.364-96.975L1512.727 1571l116.364-96.975L1745.455 1571l116.363-96.975L1978.182 1571l116.363-96.975L2210.91 1571l116.364-96.975L2443.636 1571 2560 1474.025V0z"/>
	</defs>
	<g fill="none" fill-rule="evenodd">
		<mask id="b" fill="#fff">
			<use xlink:href="#a"/>
		</mask>
		<g mask="url(#b)">
			<path fill="#FFF" d="M2560 0H0v1571h2560"/>
			<path fill="#EAECF0" d="M2453.333 213.346c0-77.58-58.181-135.766-135.757-135.766-77.576 0-135.758 58.185-135.758 135.766 0 77.58 58.182 135.765 135.758 135.765 77.576 0 135.757-58.185 135.757-135.765zm-261.818 223.043V387.9h242.425v48.488h-242.424zm0 1144.309V562.457h242.425v1027.938h-242.424v-9.697zM300.606 48.488H48.485v58.185h252.121V48.488zm232.727 0H320v58.185h213.333V48.488zm232.728 0H552.727v58.185h213.334V48.488zm223.03 0h-126.06v58.185h126.06V48.488zm-145.455 0h-58.181v58.185h58.181V48.488zm223.03 0h-58.181v58.185h58.182V48.488z"/>
			<g fill="#EAECF0">
				<path d="M58.182 155.161v38.79h892.121v-38.79H58.182zm-9.697-9.698H960v58.185H48.485v-58.185z"/>
				<path d="M930.91 164.858h-19.395v19.395h19.395z"/>
			</g>
			<path fill="#EAECF0" d="M493 281H106v1344h387V281zm1602 0H579v1344h1516V281z"/>
			<path fill="#C8CCD1" d="M1946 416H841v78.774h1105V416zm0 377.613H841v78.774h1105v-78.774zm0-188.806H706v78.773h1240v-78.773zm0 566.42H706V1250h1240v-78.774zm0-188.807h-553v78.773h553V982.42zm-651 0H791v78.773h504V982.42z"/>
			<path fill="#36C" d="M1370 982h-50v47h50z"/>
			<g transform="matrix(-1 0 0 1 1386.87 580.297)">
				<path fill="#FFF" d="M0 0h684v368.861H0z"/>
				<ellipse cx="97.477" cy="79.511" fill="#36C" rx="37.5"/>
				<path fill="#36C" d="M60 161h441.92v25.007H60zm0 48h560v25.007H60zm0 81h245.164v25.007H60z"/>
			</g>
			<path fill="#EAECF0" d="M2560 0v1571H0V0h2560zm-9.697 9.698H9.697v1459.769l106.667 88.926 116.363-96.975 116.364 96.975 116.364-96.975 116.363 96.975 116.364-96.975 116.363 96.975 116.364-96.975 116.364 96.975 116.363-96.975L1280 1558.393l116.364-96.975 116.363 96.975 116.364-96.975 116.364 96.975 116.363-96.975 116.364 96.975 116.363-96.975 116.364 96.975 116.364-96.975 116.363 96.975 106.667-87.278V9.698z"/>
		</g>
	</g>
</svg>
