<?xml version="1.0" encoding="UTF-8"?>
<svg width="37" height="27" xmlns="http://www.w3.org/2000/svg">
    <g id="Page-1" fill="none" fill-rule="evenodd">
        <g id="sad-face" fill="#C8CCD1">
            <path d="M5.475.7v20.075L0 26.25h31.025c3.102 0 5.475-2.372 5.475-5.475V.7H5.475zm20.44 4.562c1.277 0 2.19 1.095 2.19 2.19 0 1.096-.913 2.373-2.19 2.373-1.278 0-2.19-1.095-2.19-2.19s1.095-2.373 2.19-2.373zm-9.855 0c1.277 0 2.19 1.095 2.19 2.19 0 1.096-1.095 2.373-2.19 2.373s-2.19-1.095-2.19-2.19.913-2.373 2.19-2.373zm4.928 8.213c-7.153 0-8.415 7.012-8.415 7.012s2.805-1.403 8.415-1.403c5.61 0 8.414 1.403 8.414 1.403S28 13.475 20.988 13.475z" id="Shape"/>
        </g>
    </g>
</svg>
