<?xml version="1.0" encoding="UTF-8"?>
<svg xmlns="http://www.w3.org/2000/svg" width="122.423" height="50.258" viewBox="0 0 122.423 50.258">
	<path fill="#444" stroke="#231f20" stroke-miterlimit="10" d="M-768.907-1387.27h1287.13v2885.42h-1287.13z"/>
	<path fill="#444" d="M-642.854-314.827h1024v607h-1024z" opacity="0.3"/>
	<path fill="#c8ccd1" d="M-370.526-235.217h572.01v453.12h-572.01z"/>
	<path fill="#fff" stroke="#eaecf0" stroke-miterlimit="10" d="M-374.385-239.835h570.953V212.84h-570.953z"/>
	<path fill="#eaecf0" d="M4.516 0h83.23v6.402H4.516z"/>
	<path fill="#36c" d="M0 11.87h78.713v6.403H0z"/>
	<path fill="#eaecf0" d="M95.252 0h23.97v6.402H95.25zm-10.65 11.87h37.822v6.403H84.602z"/>
	<path fill="#f9ed32" stroke="#a2a9b1" stroke-miterlimit="10" d="M102.797 49.758H16.425V24.416H34.65l4-4.802 4.002 4.802h60.145z" opacity="0.2"/>
	<path fill="none" stroke="#a2a9b1" stroke-miterlimit="10" d="M24.246 31.677h34.012m-34.012 3.41H87.53M24.246 38.88H87.53m-63.284 3.2H87.53m-63.284 3.202H87.53"/>
	<path fill="#36c" d="M90.46 26.216h9.585v11.977H90.46z"/>
	<path fill="#fff" d="M96 35.81l-1.8-1.956-.28.115-1.785 2.766h6.234v-.005l-1.427-1.52z"/>
	<path fill="#a2a9b1" d="M69.06 31.15h8.188v1.056H69.06zm9.685-.273h8.187v1.056h-8.187z"/>
</svg>
